<?xml version="1.0" encoding="UTF-8"?>
<svg version="1.1" viewBox="0 0 1024 1024" width="1024" height="1024" xmlns="http://www.w3.org/2000/svg">
<path transform="translate(0)" d="m0 0h1024v1024h-1024z" fill="#E3D4FD"/>
<path transform="translate(212,148)" d="m0 0h13l12 3 19 9 15 10 13 10 10 9 8 7 26 26 7 8 13 16 14 19 16 24 10 18 9 19 11 26v3l27-8 26-5 27-3 18-1h27l31 3 24 5 27 9 16-37 8-17 12-20 14-20 14-18 9-11 11-12 7-8 17-17 11-9 9-8 18-13 16-9 14-6 8-2h13l9 3 10 9 6 9 5 13 4 19 2 18 1 15v46l-3 53-4 39-6 40-6 27-9 27-12 25-12 17-12 13-12 10-13 8-12 6 1 18v41l-3 25-6 26-7 21-8 18-8 16-11 18-13 17-11 12-19 19-8 7-11 10-14 11-17 12-17 10-21 9-20 6-16 3-10 1h-34l-20-3-19-5-18-7-16-8-15-9-14-10-11-9-10-9-8-7-15-14-14-14-11-14-10-14-14-25-9-21-8-24-6-29-2-20v-35l2-22-20-11-13-10-12-11-13-17-10-18-8-19-8-27-6-29-5-34-4-43-2-37v-60l3-31 4-18 6-15 7-9 8-6z" fill="#101010"/>
<path transform="translate(0,528)" d="m0 0h1l3 40 4 30 7 35 8 30 11 32 12 29 12 25 10 18 12 20 8 12 10 14 12 16 11 13 9 11 16 17 20 20 8 7 14 12 14 11 18 13 15 10 13 8 24 14 30 15 24 10 25 9 26 8 30 7 28 5 26 3 13 1v1h-474z" fill="#FDFDFD"/>
<path transform="translate(0)" d="m0 0h491v1l-29 2-27 3-38 7-31 8-33 11-32 13-35 17-23 13-25 16-18 13-16 13-11 9-16 15-23 23-7 8-12 14-13 17-13 18-11 17-12 20-15 28-14 32-10 28-8 26-6 24-6 32-4 33-2 32h-1z" fill="#FDFDFD"/>
<path transform="translate(1023,549)" d="m0 0h1v475h-471v-1l37-4 28-5 29-7 26-8 20-7 26-11 20-9 22-12 14-8 24-15 15-11 16-12 10-8 13-11 13-12 27-27 7-8 14-17 16-21 13-20 11-18 10-18 10-19 12-27 10-27 7-21 8-31 7-36 4-32z" fill="#FDFDFD"/>
<path transform="translate(534)" d="m0 0h490v477h-1l-4-40-5-29-7-31-9-30-10-29-12-27-8-17-13-23-11-18-11-16-14-19-8-10-11-13-9-10-7-8-20-20-8-7-15-13-17-13-18-13-25-16-21-12-25-13-27-12-24-9-25-8-30-8-30-6-32-4-33-2z" fill="#FDFDFD"/>
<path transform="translate(479,632)" d="m0 0 3 1-10 6-6 7-4 9-1 5v9l4 13 8 11 11 8 16 8 1 2v14l-5 12-9 10-10 6-16 4h-12l-17-4-11-4-6 1-1 1 1 7 7 6 10 5 14 4h25l21-5 10-3 12-1 13 2 21 6 6 1h24l15-4 12-7 5-5v-6l-3-2-9 2-16 5-7 1h-11l-14-3-13-7-7-7-6-12-2-9 1-8 4-4 16-8 10-9 6-9 3-8v-16l-4-10-7-8-8-5 2-1 16 6 14 8 12 9 16 13 21 13 19 9 16 8 9 7 7 8 5 10-1 4-7 9-12 14-13 13-8 7-16 13-16 11-17 10-21 9-20 6-18 3-20 1-22-2-19-4-18-6-18-8-16-9-17-12-10-8-14-12-20-20-11-14-2-5 6-11 9-10 14-9 18-8 15-8 11-7 16-12 16-13 14-8 12-5z" fill="#FCFCFD"/>
<path transform="translate(795,197)" d="m0 0 9 1 5 4 4 11 2 20v15l-3 39-6 41-8 42-9 39-7 25-8 20-8 13-8 8-10 6-7 2h-6l-8-21-13-27-26-44-6-16-3-16v-20l3-17 6-16 8-15 14-19 13-15 22-24 16-15 17-13 13-7z" fill="#FCFCFD"/>
<path transform="translate(224,197)" d="m0 0 10 1 11 6 12 9 14 12 23 23 9 11 10 11 14 19 9 16 7 21 2 13v19l-3 16-7 19-10 17-13 22-8 15-11 26-4 10-10-1-10-5-9-8-9-14-6-14-7-23-8-33-9-44-7-43-3-28-1-13v-34l3-16 4-6 3-3z" fill="#FCFCFD"/>
<path transform="translate(643,546)" d="m0 0h19l13 4 11 7 7 7 7 12 3 11v16l-3 11-5 10-9 10-10 7-11 4-5 1h-14l-13-4-1-2 9 2h11l12-3 10-6 8-9 4-8 2-9v-11l-4-13-7-10-9-7-10-4-6-1h-8l-12 3-10 6-8 9-4 8-2 6v21l-2-2-2-8v-15l3-12 5-10 9-10 10-7z" fill="#FBFAFD"/>
<path transform="translate(362,546)" d="m0 0h19l12 4 9 6 9 9 7 13 2 8v20l-3 9-1-2 1-4v-13l-4-13-6-9-7-6-10-5-10-2-13 1-10 4-9 6-6 8-4 8-2 15 2 12 5 10 7 8 11 6 11 3h11l8-1-2 2-11 3h-13l-12-3-11-6-9-8-7-11-4-11-1-7v-10l3-13 6-11 6-7 10-7 8-4z" fill="#FBFBFD"/>
<path transform="translate(621,496)" d="m0 0h14l10 5 4 7-1 5-4 5-8 4-14 5-18 10-7-1-1-2 1-10 4-10 6-9 7-6z" fill="#FCFBFD"/>
<path transform="translate(389,496)" d="m0 0h13l10 5 7 7 7 14 1 4v8l-4 3-5-1-16-9-20-8-6-5-1-7 4-6 7-4z" fill="#FCFBFD"/>
<path transform="translate(659,572)" d="m0 0h7l6 5 1 5-3 7-4 2h-6l-6-5-1-7 4-6z" fill="#FCFBFD"/>
<path transform="translate(358,572)" d="m0 0h7l5 4 1 8-5 6-2 1h-6l-5-4-1-2v-7l4-5z" fill="#FBFBFD"/>
<path transform="translate(388,708)" d="m0 0h7l4 4v8l-3 3h-6l-5-4-1-6z" fill="#101010"/>
<path transform="translate(630,708)" d="m0 0 7 1 3 4-1 6-5 4h-6l-3-3v-7z" fill="#101010"/>
<path transform="translate(412,692)" d="m0 0 5 2 3 4-1 6-3 3h-7l-3-3-1-5 3-5z" fill="#101010"/>
<path transform="translate(608,693)" d="m0 0h7l4 5-1 6-3 3h-7l-3-3-1-4 2-5z" fill="#101010"/>
<path transform="translate(596,717)" d="m0 0 6 1 3 3v7l-3 3h-6l-4-3-1-5 3-5z" fill="#101010"/>
<path transform="translate(424,717)" d="m0 0 5 1 3 3v6l-4 4h-6l-3-3v-7z" fill="#101010"/>
</svg>
